<svg width="112" height="23" viewBox="0 0 112 23" xmlns="http://www.w3.org/2000/svg"><title>gofilterfish</title><path d="M6.492 16.184c-2.203 0-3.645-1.793-3.645-4.547 0-2.766 1.441-4.57 3.645-4.57 2.215 0 3.715 1.852 3.715 4.57 0 2.707-1.5 4.547-3.715 4.547zm.035 6.328c3.551 0 5.719-1.84 5.719-4.863v-12.281h-1.945v2.051h-.035c-.844-1.383-2.332-2.168-4.113-2.168-3.246 0-5.391 2.531-5.391 6.387 0 3.82 2.145 6.363 5.344 6.363 1.77 0 3.258-.797 4.055-2.168h.047v1.98c0 1.793-1.383 2.93-3.562 2.93-1.664 0-2.918-.656-3.223-1.711h-2.121c.293 2.098 2.367 3.48 5.227 3.48zm14.039-4.395c3.551 0 5.824-2.52 5.824-6.434 0-3.926-2.273-6.434-5.824-6.434-3.551 0-5.824 2.508-5.824 6.434 0 3.914 2.273 6.434 5.824 6.434zm0-1.816c-2.344 0-3.75-1.723-3.75-4.617 0-2.895 1.395-4.617 3.75-4.617s3.75 1.711 3.75 4.617c0 2.895-1.395 4.617-3.75 4.617zm8.988 1.699h2.039v-10.945h2.461v-1.688h-2.461v-1.172c.012-1.184.457-1.676 1.512-1.676.316 0 .68.035.949.094v-1.688c-.387-.07-.738-.105-1.137-.105-2.344 0-3.363 1.043-3.363 3.375v1.172h-1.758v1.688h1.758v10.945zm7.172 0h2.039v-12.633h-2.039v12.633zm1.02-14.672c.715 0 1.289-.586 1.289-1.289 0-.715-.574-1.289-1.289-1.289-.703 0-1.289.574-1.289 1.289 0 .703.586 1.289 1.289 1.289zm4.371 14.672h2.039v-17.648h-2.039v17.648zm5.941-15.48v2.848h-1.758v1.688h1.758v7.664c0 2.426.891 3.375 3.176 3.375.48 0 1.066-.047 1.313-.105v-1.723c-.141.023-.633.059-.879.059-1.078 0-1.57-.527-1.57-1.688v-7.582h2.461v-1.688h-2.461v-2.848h-2.039zm12.152 4.523c1.992 0 3.352 1.43 3.398 3.574h-6.949c.141-2.133 1.57-3.574 3.551-3.574zm3.352 7.348c-.363 1.184-1.594 1.934-3.176 1.934-2.25 0-3.727-1.559-3.727-3.961v-.117h9.07v-.797c0-3.82-2.109-6.199-5.484-6.199-3.445 0-5.695 2.566-5.695 6.48 0 3.914 2.238 6.387 5.789 6.387 2.695 0 4.887-1.559 5.238-3.727h-2.016zm4.664 3.609h2.039v-7.816c0-1.781 1.078-2.977 2.719-2.977.504 0 .949.059 1.113.117v-2.004c-.176-.035-.48-.07-.844-.07-1.477 0-2.684.844-3.059 2.168h-.047v-2.051h-1.922v12.633zm8.625 0h2.039v-10.945h2.461v-1.688h-2.461v-1.172c.012-1.184.457-1.676 1.512-1.676.316 0 .68.035.949.094v-1.688c-.387-.07-.738-.105-1.137-.105-2.344 0-3.363 1.043-3.363 3.375v1.172h-1.758v1.688h1.758v10.945zm7.172 0h2.039v-12.633h-2.039v12.633zm1.02-14.672c.715 0 1.289-.586 1.289-1.289 0-.715-.574-1.289-1.289-1.289-.703 0-1.289.574-1.289 1.289 0 .703.586 1.289 1.289 1.289zm4.043 5.566c0 1.688 1.078 2.801 3.293 3.375l2.215.574c1.441.375 1.969.844 1.969 1.734 0 1.137-1.078 1.852-2.801 1.852s-2.766-.691-2.977-1.98h-2.051c.199 2.191 2.168 3.668 4.887 3.668 2.918 0 4.992-1.523 4.992-3.68 0-1.84-.914-2.73-3.469-3.375l-1.922-.48c-1.453-.363-2.133-.938-2.133-1.793 0-1.102 1.043-1.84 2.602-1.84 1.547 0 2.578.738 2.707 1.922h1.957c-.082-2.074-2.027-3.609-4.594-3.609-2.742 0-4.676 1.5-4.676 3.633zm12.211 9.105h2.039v-7.266c0-2.215 1.313-3.668 3.445-3.668 2.004 0 3.023 1.219 3.023 3.234v7.699h2.039v-8.063c0-2.813-1.688-4.688-4.453-4.688-1.934 0-3.223.738-4.008 2.168h-.047v-7.066h-2.039v17.648z" fill="#fff"/></svg>